<?xml version="1.0" standalone="no"?>
<!DOCTYPE svg PUBLIC "-//W3C//DTD SVG 20010904//EN"
 "http://www.w3.org/TR/2001/REC-SVG-20010904/DTD/svg10.dtd">
<svg version="1.0" xmlns="http://www.w3.org/2000/svg"
 width="183.000000pt" height="275.000000pt" viewBox="0 0 183.000000 275.000000"
 preserveAspectRatio="xMidYMid meet">

<g transform="translate(0.000000,275.000000) scale(0.100000,-0.100000)"
fill="#000000" stroke="none">
<path d="M715 2544 c-16 -8 -43 -27 -59 -42 -16 -15 -25 -21 -21 -13 5 9 4 12
-3 7 -7 -4 -12 -14 -12 -21 0 -8 -6 -12 -14 -9 -9 3 -20 -4 -28 -18 -7 -13
-22 -23 -33 -23 -19 0 -69 -71 -59 -86 2 -4 0 -10 -6 -14 -12 -7 -14 -45 -2
-45 4 0 15 9 25 20 9 11 26 20 38 20 18 0 19 -2 5 -15 -8 -8 -19 -15 -24 -15
-5 0 -21 -11 -36 -25 -31 -29 -41 -32 -32 -10 8 23 -22 18 -34 -5 -15 -27 -9
-86 8 -82 6 1 13 -4 13 -10 1 -7 3 -26 5 -43 2 -16 -3 -36 -10 -45 -7 -8 -16
-23 -19 -33 -4 -9 -19 -22 -33 -28 -37 -13 -50 -33 -64 -99 -6 -30 -16 -74
-21 -97 -5 -23 -8 -63 -8 -90 l2 -48 11 67 c10 63 26 101 26 65 0 -9 6 -16 13
-15 9 2 13 -22 16 -87 6 -170 13 -240 22 -250 7 -7 10 12 9 55 -2 55 8 130 25
200 2 8 4 17 5 20 0 3 9 -12 19 -34 16 -34 20 -37 29 -21 8 15 12 9 21 -36 15
-72 22 -207 11 -214 -5 -3 -6 -15 -1 -29 5 -12 7 -46 5 -75 -3 -29 -1 -58 4
-64 5 -7 13 -26 16 -44 6 -24 3 -34 -10 -41 -11 -6 -13 -11 -5 -16 6 -4 11
-26 10 -49 l-1 -42 -9 39 c-14 58 -19 56 -19 -7 0 -46 3 -55 15 -51 19 8 19
-3 0 -23 -8 -8 -12 -19 -9 -24 3 -6 3 -22 -1 -37 -5 -20 -8 -23 -16 -11 -5 7
-9 10 -9 5 0 -5 -7 -3 -15 4 -8 7 -15 9 -15 5 0 -4 -7 -2 -15 5 -7 6 -17 33
-22 58 -4 26 -8 50 -9 55 -1 4 -3 40 -4 80 -2 63 -4 54 -16 -75 -7 -81 -17
-177 -22 -212 -11 -70 -4 -118 22 -158 9 -14 18 -39 19 -55 2 -20 8 -27 20
-25 9 2 17 -2 17 -8 0 -9 -14 -14 -34 -11 -4 1 -14 -3 -21 -9 -10 -8 -18 -4
-33 15 -11 14 -25 25 -31 25 -23 0 -43 -65 -43 -142 0 -29 -4 -38 -16 -38 -15
0 -15 2 -2 10 8 5 11 12 8 15 -16 17 -29 -9 -23 -45 5 -29 3 -39 -9 -43 -9 -4
-19 1 -25 10 -7 14 -9 14 -15 -5 -4 -11 -20 -35 -37 -53 -16 -17 -29 -37 -29
-45 0 -8 -6 -11 -15 -8 -11 5 -15 -1 -15 -19 0 -16 16 -39 50 -71 41 -38 56
-46 88 -46 60 0 105 40 157 140 141 269 185 367 195 430 5 36 10 216 11 400 1
184 5 346 8 359 l7 24 16 -25 c9 -14 34 -45 55 -70 21 -25 43 -54 50 -64 8
-15 9 -8 1 29 -5 27 -7 51 -4 54 10 10 15 -1 20 -40 2 -20 7 -46 11 -58 5 -15
4 -19 -4 -15 -18 12 38 -123 64 -154 7 -8 20 -62 30 -119 14 -95 19 -107 48
-133 18 -16 52 -34 76 -41 39 -10 46 -18 68 -64 14 -29 29 -53 34 -53 5 0 32
-47 59 -104 42 -88 62 -116 128 -182 87 -87 74 -59 173 -376 l34 -108 183 0
182 0 0 975 0 975 -37 0 c-21 1 -66 7 -100 14 -34 7 -67 10 -74 5 -7 -4 -20
-4 -30 1 -9 5 -20 6 -24 2 -4 -4 -5 3 -1 14 10 31 -18 37 -46 11 -37 -35 -68
-29 -84 16 -7 21 -33 57 -57 81 -48 46 -64 99 -44 143 11 26 -2 88 -19 88 -15
0 -44 31 -44 48 0 15 -81 77 -101 77 -7 0 -35 23 -62 51 -42 44 -51 49 -65 37
-11 -9 -14 -10 -8 0 13 21 -45 14 -103 -13 -60 -28 -84 -26 -140 15 -35 24
-38 24 -76 4z m451 -119 c20 -19 5 -19 -20 0 -11 9 -14 15 -7 15 7 0 19 -7 27
-15z m-265 -64 c6 9 9 10 9 2 0 -6 -4 -14 -10 -18 -5 -3 -7 -12 -3 -20 3 -10
-1 -15 -12 -15 -12 0 -15 5 -11 16 3 9 6 23 7 32 0 12 2 13 6 3 5 -11 7 -11
14 0z m-271 -11 c0 -5 -2 -10 -4 -10 -3 0 -8 5 -11 10 -3 6 -1 10 4 10 6 0 11
-4 11 -10z m558 -11 c12 -18 11 -24 -7 -40 -20 -19 -20 -18 -18 21 1 45 7 49
25 19z m-307 -64 c9 -17 7 -17 -9 2 -16 18 -21 20 -26 8 -3 -8 -1 -15 4 -15 6
0 10 -5 10 -12 0 -8 -6 -7 -16 4 -13 13 -14 20 -4 38 13 24 17 21 41 -25z
m-243 17 c6 -18 -15 -14 -22 4 -4 10 -1 14 6 12 6 -2 14 -10 16 -16z m642 -3
c0 -6 -9 -13 -20 -16 -11 -3 -20 -9 -20 -14 0 -4 -9 -6 -20 -4 -11 2 -20 -1
-20 -7 0 -6 -3 -8 -7 -4 -10 9 47 55 70 56 9 0 17 -5 17 -11z m-733 -96 c-4
-3 -2 -12 5 -20 8 -10 8 -17 0 -25 -9 -9 -12 -9 -12 1 0 7 -4 10 -9 6 -5 -3
-12 -1 -15 4 -4 5 -2 12 4 16 6 4 8 11 5 16 -4 5 2 9 11 9 10 0 14 -3 11 -7z
m488 -13 c-3 -5 -11 -10 -16 -10 -6 0 -7 5 -4 10 3 6 11 10 16 10 6 0 7 -4 4
-10z m-504 -55 c3 -32 4 -36 19 -45 12 -8 10 -10 -10 -10 -14 0 -34 -7 -44
-15 -28 -21 -36 -19 -36 9 0 24 41 76 60 76 5 0 11 -7 11 -15z m779 -25 c0 -5
-5 -10 -11 -10 -5 0 -7 5 -4 10 3 6 8 10 11 10 2 0 4 -4 4 -10z m110 -71 c0
-6 -4 -7 -10 -4 -5 3 -10 11 -10 16 0 6 5 7 10 4 6 -3 10 -11 10 -16z m-856 3
c6 -10 -40 -10 -50 1 -4 4 4 7 19 7 14 0 28 -4 31 -8z m46 -33 c0 -6 -4 -7
-10 -4 -5 3 -10 11 -10 16 0 6 5 7 10 4 6 -3 10 -11 10 -16z m-40 -5 c0 -9 -9
-18 -20 -21 -11 -3 -20 -9 -20 -14 0 -5 9 -9 20 -9 11 0 23 0 28 0 4 0 7 5 7
12 0 14 21 22 29 10 3 -5 -4 -18 -14 -30 -11 -12 -21 -32 -23 -44 -1 -13 -6
-26 -12 -30 -7 -5 -6 -11 1 -15 14 -10 24 -51 17 -70 -4 -9 -15 4 -33 39 -41
81 -62 182 -36 172 8 -3 23 -1 33 5 23 14 23 14 23 -5z m700 -26 c0 -7 -4 -19
-9 -26 -7 -11 -10 -10 -15 3 -3 9 -4 21 0 26 8 13 24 11 24 -3z m217 -35 c-2
-24 2 -28 21 -25 12 2 22 0 22 -5 -1 -17 -40 -54 -51 -47 -8 5 -9 -8 -3 -47
10 -73 7 -141 -7 -150 -9 -5 -8 -12 4 -24 11 -10 16 -31 16 -53 -1 -28 -3 -31
-6 -12 -6 32 -31 60 -55 60 -14 0 -18 -8 -18 -38 0 -71 -15 -54 -31 35 -11 60
-12 92 -6 101 8 10 14 8 26 -12 9 -15 20 -25 26 -23 5 2 17 -3 25 -12 13 -13
15 -12 18 8 2 12 -2 28 -8 36 -6 8 -8 20 -4 26 4 7 3 9 -3 6 -6 -4 -13 3 -16
14 -3 12 -10 18 -15 15 -5 -3 -10 14 -10 40 -1 24 -4 49 -7 53 -3 5 2 11 10
15 8 3 15 15 15 26 0 30 17 16 25 -20 4 -17 11 -30 16 -30 12 0 11 4 -2 34
-12 26 -7 56 10 56 5 0 9 -12 8 -27z m91 -88 c-2 -1 -16 -5 -32 -9 -25 -6 -28
-5 -17 7 6 8 21 13 32 10 11 -3 18 -7 17 -8z m-15 -257 c6 -22 5 -22 -8 -4
-17 22 -20 40 -6 32 5 -3 11 -16 14 -28z m-56 -30 c-3 -8 -6 -5 -6 6 -1 11 2
17 5 13 3 -3 4 -12 1 -19z m57 -32 c4 -19 13 -39 21 -46 8 -7 12 -16 9 -21
-14 -23 -33 1 -39 48 -2 11 -6 31 -10 43 -4 14 -3 20 3 16 5 -3 13 -21 16 -40z
m-138 -48 c1 -13 3 -35 3 -50 1 -16 7 -28 14 -28 27 0 49 -39 53 -90 4 -51 4
-51 -38 -54 -7 -1 -16 13 -19 29 l-7 30 -1 -35 c-2 -34 -3 -34 -16 15 -11 40
-20 164 -16 220 2 17 24 -14 27 -37z m71 0 c-3 -8 -6 -5 -6 6 -1 11 2 17 5 13
3 -3 4 -12 1 -19z m-727 -9 c-7 -11 -14 -18 -17 -15 -3 3 0 12 7 21 18 21 23
19 10 -6z m1007 -51 c-3 -7 -5 -2 -5 12 0 14 2 19 5 13 2 -7 2 -19 0 -25z
m-685 -60 c-8 -8 -9 -4 -5 13 4 13 8 18 11 10 2 -7 -1 -18 -6 -23z m466 -347
c3 -8 -1 -12 -9 -9 -7 2 -15 10 -17 17 -3 8 1 12 9 9 7 -2 15 -10 17 -17z m2
-43 c0 -23 23 -97 41 -129 6 -11 6 -20 -1 -24 -5 -3 -10 1 -10 9 0 9 -7 16
-16 16 -10 0 -14 6 -10 15 4 10 -1 15 -15 15 -11 0 -18 4 -15 9 5 8 -68 -4
-83 -14 -4 -2 -7 5 -7 16 0 10 5 19 11 19 5 0 2 5 -7 11 -20 11 -25 39 -7 39
5 0 7 -4 4 -10 -3 -6 1 -7 9 -4 9 3 16 10 16 15 0 5 5 9 10 9 6 0 8 -12 5 -27
l-5 -28 12 28 c7 15 17 27 24 27 6 0 14 7 18 15 8 23 26 18 26 -7z m-1030 2
c0 -5 -2 -10 -4 -10 -3 0 -8 5 -11 10 -3 6 -1 10 4 10 6 0 11 -4 11 -10z m-29
-127 c0 -24 2 -25 8 -9 5 12 10 16 14 9 8 -13 -1 -43 -14 -43 -4 0 -6 -7 -2
-17 5 -14 1 -15 -27 -10 -18 4 -39 7 -46 7 -8 0 -14 5 -14 10 0 6 12 10 26 10
24 0 25 2 13 17 -13 15 -12 15 9 4 18 -10 22 -9 22 4 0 9 -4 14 -9 11 -5 -4
-7 3 -4 14 8 29 23 24 24 -7z m-36 -83 c-3 -5 3 -10 14 -10 17 0 21 -6 20 -32
-1 -31 -1 -32 -9 -8 -7 23 -8 23 -9 3 -1 -12 -6 -25 -12 -29 -8 -4 -7 -9 2
-15 10 -6 11 -9 2 -9 -7 0 -13 -9 -13 -20 0 -33 -16 -23 -18 12 -2 17 -7 37
-13 44 -10 13 4 51 26 66 14 11 17 10 10 -2z m1175 -75 c0 -17 -2 -17 -10 -5
-5 8 -10 24 -10 35 0 17 2 17 10 5 5 -8 10 -24 10 -35z m30 -70 c0 -8 -2 -15
-4 -15 -2 0 -6 7 -10 15 -3 8 -1 15 4 15 6 0 10 -7 10 -15z m-1270 -15 c0 -5
-5 -10 -11 -10 -5 0 -7 5 -4 10 3 6 8 10 11 10 2 0 4 -4 4 -10z m25 0 c3 -5 1
-10 -4 -10 -6 0 -11 5 -11 10 0 6 2 10 4 10 3 0 8 -4 11 -10z m1334 -89 c31
-35 35 -55 6 -31 -13 11 -14 10 -8 -6 6 -17 5 -17 -10 -6 -8 8 -13 20 -10 28
3 9 0 12 -9 9 -7 -3 -22 1 -32 8 -16 12 -16 14 -2 14 9 0 16 -4 16 -9 0 -4 5
-8 10 -8 7 0 7 7 0 20 -6 11 -16 17 -22 14 -6 -4 -8 -3 -4 4 3 6 2 13 -4 17
-5 3 -10 14 -10 23 0 12 7 9 24 -13 13 -16 38 -45 55 -64z m-1461 -88 c-6 -7
-17 -13 -24 -13 -7 0 -11 6 -8 13 2 7 13 13 24 13 14 0 16 -3 8 -13z m36 -4
c-18 -6 -18 -7 -1 -14 29 -12 19 -34 -19 -41 -26 -5 -40 -2 -52 10 -14 13 -14
16 -1 16 8 0 26 11 39 24 14 13 31 21 39 18 11 -4 10 -7 -5 -13z m-115 -159
c21 -10 42 -16 46 -12 3 4 5 0 3 -8 -2 -10 3 -14 17 -12 11 2 17 1 13 -3 -9
-10 -58 -14 -58 -5 0 5 -9 6 -20 3 -16 -4 -19 -2 -14 11 5 14 -5 20 -36 18 -3
0 -11 6 -18 14 -20 22 20 18 67 -6z"/>
<path d="M1412 1410 c0 -19 2 -27 5 -17 2 9 2 25 0 35 -3 9 -5 1 -5 -18z"/>
<path d="M1450 1291 c0 -11 26 -22 34 -14 12 12 5 23 -14 23 -11 0 -20 -4 -20
-9z"/>
<path d="M281 1603 c-15 -16 -18 -246 -6 -372 6 -51 5 -72 -3 -67 -17 11 -60
-11 -67 -35 -11 -35 -35 -55 -45 -39 -10 17 -22 -36 -22 -100 1 -61 17 -98 82
-185 28 -38 56 -78 62 -88 5 -10 12 -16 15 -13 15 14 34 162 44 341 17 287 17
311 7 405 -5 47 -10 103 -11 125 -2 33 -6 40 -22 41 -11 1 -26 -5 -34 -13z m9
-477 c0 -8 3 -21 6 -29 3 -9 -2 -20 -13 -25 -17 -9 -18 -7 -15 29 4 36 22 57
22 25z m10 -85 c0 -5 2 -16 5 -23 4 -9 -5 -19 -21 -27 -35 -16 -40 -9 -18 28
18 30 34 40 34 22z"/>
<path d="M471 1364 c0 -11 3 -14 6 -6 3 7 2 16 -1 19 -3 4 -6 -2 -5 -13z"/>
<path d="M376 1351 c-4 -7 -5 -15 -2 -18 9 -9 19 4 14 18 -4 11 -6 11 -12 0z"/>
<path d="M220 1263 c0 -10 -3 -29 -7 -43 -6 -25 -6 -25 15 -6 25 22 30 66 7
66 -8 0 -15 -8 -15 -17z"/>
<path d="M448 1053 c6 -2 18 -2 25 0 6 3 1 5 -13 5 -14 0 -19 -2 -12 -5z"/>
<path d="M438 1003 c7 -3 16 -2 19 1 4 3 -2 6 -13 5 -11 0 -14 -3 -6 -6z"/>
<path d="M900 133 c-15 -6 -30 -23 -30 -35 0 -4 13 -21 30 -38 27 -28 34 -30
102 -30 63 0 75 3 86 21 11 18 11 24 -2 38 -9 10 -13 21 -9 26 5 4 -4 5 -19 3
-16 -3 -36 1 -45 8 -18 13 -85 17 -113 7z"/>
</g>
</svg>
