<?xml version="1.0" standalone="no"?>
<!DOCTYPE svg PUBLIC "-//W3C//DTD SVG 20010904//EN"
 "http://www.w3.org/TR/2001/REC-SVG-20010904/DTD/svg10.dtd">
<svg version="1.0" xmlns="http://www.w3.org/2000/svg"
 width="258.000000pt" height="195.000000pt" viewBox="0 0 258.000000 195.000000"
 preserveAspectRatio="xMidYMid meet">

<g transform="translate(0.000000,195.000000) scale(0.100000,-0.100000)"
fill="#000000" stroke="none">
<path d="M0 1939 c0 -5 5 -7 10 -4 5 3 10 8 10 11 0 2 -4 4 -10 4 -5 0 -10 -5
-10 -11z"/>
<path d="M290 1943 c0 -7 -11 -13 -25 -13 -14 0 -25 -5 -25 -10 0 -7 13 -8 34
-5 20 4 36 2 40 -4 5 -7 -3 -11 -19 -11 -15 0 -24 -4 -20 -10 3 -5 2 -10 -4
-10 -5 0 -13 5 -16 10 -9 14 -21 12 -39 -6 -15 -14 -16 -14 -16 5 0 12 5 21
10 21 6 0 10 4 10 9 0 5 -9 7 -19 4 -12 -3 -17 -11 -14 -19 3 -9 -2 -14 -15
-14 -11 0 -23 -6 -25 -12 -4 -10 -6 -10 -6 0 -1 16 -41 16 -41 0 0 -9 -3 -8
-9 2 -6 8 -8 17 -5 21 6 11 -48 18 -70 9 -19 -8 -17 -9 9 -11 17 -1 34 -1 38
0 5 1 6 -3 2 -9 -3 -5 -19 -8 -35 -6 l-30 3 0 -248 0 -249 25 0 c20 0 25 -5
25 -25 0 -20 -5 -25 -25 -25 -14 0 -25 -5 -25 -10 0 -6 11 -8 26 -4 20 5 25 3
22 -7 -3 -8 -15 -13 -26 -12 -21 3 -21 0 -22 -293 0 -226 3 -300 12 -312 10
-12 10 -16 1 -19 -22 -8 -14 -33 14 -44 21 -8 28 -7 35 6 5 8 16 15 24 15 14
0 14 -2 0 -16 -21 -21 -21 -20 22 -17 33 3 34 2 13 -7 -15 -7 -41 -7 -72 -2
-48 9 -49 9 -49 -17 0 -14 4 -21 8 -16 11 15 32 17 32 3 0 -9 3 -9 12 0 15 15
31 16 22 0 -4 -6 -3 -8 3 -5 6 4 33 8 59 9 27 1 43 3 36 6 -10 3 -10 8 3 22
11 12 13 20 5 25 -6 3 -9 2 -8 -3 2 -6 -1 -9 -7 -9 -5 1 -9 7 -7 13 3 15 -53
38 -73 30 -9 -3 -15 0 -15 10 0 16 14 14 78 -12 24 -10 40 -10 59 -3 15 6 38
7 51 4 16 -4 21 -2 17 6 -6 8 4 10 34 7 35 -3 41 -1 41 15 0 10 4 16 9 13 5
-4 12 0 14 6 4 9 6 8 6 -3 1 -9 12 -21 26 -27 l26 -12 -32 -48 c-28 -40 -29
-44 -7 -24 13 12 35 22 49 23 l24 1 -25 9 c-19 7 -14 8 21 4 27 -2 51 1 57 7
9 9 12 9 12 1 0 -6 8 -10 18 -8 9 2 20 4 24 4 4 1 9 11 11 23 3 16 5 12 6 -12
1 -26 4 -31 13 -22 17 17 26 15 39 -11 12 -22 12 -22 -10 -3 -11 11 -21 14
-21 8 0 -10 50 -42 66 -42 3 0 3 8 0 18 -6 16 -5 16 7 0 12 -15 14 -15 25 0
11 15 12 14 7 -5 -6 -20 -3 -23 24 -23 23 0 30 5 33 23 3 22 9 24 40 12 11 -4
18 0 21 12 3 10 5 3 6 -16 1 -28 4 -32 19 -25 9 4 32 7 50 6 42 -3 63 9 36 19
-17 7 -17 8 4 8 12 1 22 -4 22 -10 0 -8 36 -4 48 6 8 7 -42 134 -51 128 -6 -4
-7 -1 -3 6 13 21 -14 67 -47 82 -44 19 -78 93 -86 184 -5 58 -13 83 -45 135
-21 36 -49 94 -62 129 -14 36 -42 95 -63 132 -35 60 -37 69 -24 82 9 8 12 20
9 26 -9 14 -56 15 -56 1 0 -5 12 -10 27 -10 14 0 24 -3 20 -6 -3 -3 -24 -3
-47 1 -35 6 -40 10 -37 31 1 13 6 26 10 30 12 12 8 24 -9 24 -9 0 -22 -6 -28
-14 -14 -18 -70 -10 -62 9 3 8 -2 16 -10 19 -27 10 -32 7 -27 -16 5 -23 5 -23
-10 -3 -8 11 -13 23 -11 27 9 15 -45 8 -60 -7 -8 -8 -17 -11 -20 -6 -15 23
166 217 212 226 40 9 55 19 72 48 18 31 8 44 -23 30 -29 -13 -57 0 -57 27 0
13 -7 20 -19 20 -30 0 -50 -10 -45 -23 8 -23 -12 -40 -37 -31 -13 4 -28 7 -32
6 -5 -2 -11 7 -14 18 -3 11 -12 20 -20 20 -13 0 -13 -3 -3 -15 9 -10 9 -15 1
-15 -20 0 -26 4 -23 17 2 8 -3 10 -14 6 -9 -3 -20 0 -25 8 -6 10 -9 10 -9 2z
m109 -367 c9 -11 6 -15 -14 -18 -24 -5 -34 9 -18 25 10 10 19 8 32 -7z m-313
-61 c1 -14 -2 -25 -7 -25 -10 0 -12 33 -2 43 3 4 7 7 7 7 1 0 2 -11 2 -25z
m182 -131 c-15 -16 -29 -22 -45 -20 -13 3 -23 0 -23 -5 0 -5 5 -9 10 -9 6 0
10 -4 10 -10 0 -5 -7 -7 -15 -4 -17 7 -21 44 -4 44 6 0 9 7 5 15 -3 9 0 15 10
15 11 0 14 -5 9 -17 -5 -14 -1 -12 14 4 12 12 28 20 35 17 12 -4 10 -10 -6
-30z m-114 -7 c3 3 6 -1 6 -10 0 -9 5 -17 10 -17 6 0 10 -12 10 -26 0 -26 -20
-30 -28 -4 -3 8 0 10 8 5 8 -5 11 -4 6 3 -3 6 -18 9 -31 6 -14 -2 -25 0 -25 6
0 5 9 10 21 10 11 0 17 5 14 10 -4 6 -11 8 -16 5 -12 -8 -31 4 -24 16 4 5 13
5 24 -1 10 -5 21 -6 25 -3z m-56 -25 c2 -12 -1 -22 -7 -22 -6 0 -11 -4 -11 -8
0 -5 14 -6 31 -4 21 3 30 1 25 -6 -3 -6 -19 -9 -34 -8 -23 3 -27 8 -30 41 -2
26 1 36 10 33 7 -3 14 -14 16 -26z m117 -42 c-3 -5 -12 -10 -18 -10 -7 0 -6 4
3 10 19 12 23 12 15 0z m-55 -160 c0 -5 -2 -10 -4 -10 -3 0 -8 5 -11 10 -3 6
-1 10 4 10 6 0 11 -4 11 -10z m760 -370 c-8 -5 -22 -9 -30 -9 -10 0 -8 3 5 9
27 12 43 12 25 0z m-123 -132 c-3 -8 -6 -5 -6 6 -1 11 2 17 5 13 3 -3 4 -12 1
-19z m194 -21 c-13 -13 -15 1 -4 30 7 17 8 17 11 -1 2 -10 -1 -23 -7 -29z
m-231 -14 c0 -8 -5 -13 -12 -11 -18 6 -21 25 -3 25 8 0 15 -7 15 -14z"/>
<path d="M724 1941 c3 -4 -3 -16 -14 -26 -17 -15 -22 -16 -36 -5 -13 12 -17
11 -25 -1 -5 -8 -9 -20 -9 -26 0 -7 -9 -22 -20 -33 -18 -18 -18 -20 -2 -20 21
0 140 55 167 78 12 10 10 5 -5 -11 -45 -51 -114 -92 -163 -96 -5 -1 -5 -5 -2
-11 3 -5 1 -10 -5 -10 -7 0 -10 -6 -7 -12 2 -8 -10 -17 -26 -23 -45 -15 -49
-40 -6 -32 19 3 29 3 22 1 -7 -3 -9 -12 -6 -20 7 -18 -16 -46 -31 -37 -7 4 -8
2 -1 -5 6 -6 24 -13 40 -16 17 -2 32 -5 34 -5 2 -1 -4 -12 -13 -25 -11 -18
-12 -27 -5 -32 7 -4 16 1 21 10 5 9 16 16 23 16 8 0 15 6 15 14 0 27 16 25 18
-2 1 -14 7 -31 12 -36 6 -6 10 -18 10 -29 0 -24 24 -16 27 9 1 10 2 30 4 44 1
14 -2 33 -6 43 -4 10 -3 17 3 17 13 0 47 -88 38 -97 -3 -3 -6 -1 -6 5 0 7 -5
12 -11 12 -6 0 -9 -10 -7 -22 2 -18 8 -22 30 -20 22 3 28 -2 34 -22 3 -14 12
-30 20 -37 8 -7 11 -21 8 -34 -3 -13 -1 -32 5 -42 10 -17 11 -16 17 5 9 30 24
10 24 -32 0 -23 3 -27 12 -18 9 9 18 6 40 -15 l27 -26 36 27 35 27 8 -22 c8
-19 10 -20 15 -5 7 18 56 19 69 2 4 -6 12 -5 21 2 16 14 31 4 18 -12 -5 -6 -5
-20 -1 -31 7 -19 8 -18 20 8 17 34 41 41 105 27 66 -15 101 -13 133 6 22 13
23 13 9 1 -13 -10 -15 -17 -7 -22 7 -4 17 -2 23 4 6 6 16 11 22 11 5 0 3 -5
-5 -11 -13 -9 -13 -10 0 -6 8 2 16 9 16 15 1 7 2 17 3 22 0 6 6 10 12 10 6 0
9 -9 6 -20 -3 -11 -1 -20 4 -20 5 0 9 9 9 21 0 12 4 18 11 13 6 -3 15 0 20 7
8 11 11 11 20 -5 7 -12 14 -14 18 -8 5 8 24 7 66 -3 33 -7 63 -11 67 -9 4 3
17 0 28 -6 13 -7 20 -7 20 0 0 5 -4 10 -10 10 -5 0 -10 5 -10 10 0 13 21 13
40 -1 11 -8 12 -12 3 -16 -18 -7 -16 -23 2 -23 8 0 17 11 21 25 7 26 24 29 32
5 3 -8 0 -10 -9 -5 -11 6 -12 5 -1 -6 6 -7 12 -21 12 -32 0 -16 -5 -18 -32
-12 -18 4 -37 11 -43 16 -23 22 -23 6 0 -28 25 -38 32 -63 17 -63 -4 0 -13 5
-19 11 -8 8 -17 8 -31 0 -26 -14 -35 -14 -27 -1 3 6 1 10 -4 10 -6 0 -11 -4
-11 -10 0 -5 -7 -10 -16 -10 -14 0 -14 -1 0 -16 9 -8 20 -13 25 -10 14 9 41
-4 41 -19 0 -7 6 -16 13 -18 7 -3 5 -6 -5 -6 -10 -1 -19 -9 -20 -18 0 -10 -2
-23 -2 -29 -1 -6 -7 -19 -15 -28 -7 -8 -10 -23 -7 -32 4 -10 -2 -22 -15 -33
-17 -14 -19 -19 -8 -28 25 -20 62 21 65 70 1 35 6 43 23 45 15 2 24 13 28 34
3 16 14 35 24 41 11 7 19 17 19 24 0 7 7 13 16 13 8 0 12 4 9 10 -7 12 64 8
84 -4 9 -6 12 -5 8 1 -7 11 22 28 31 18 3 -3 1 -5 -3 -5 -5 0 -1 -6 9 -13 11
-8 19 -28 21 -49 2 -31 0 -34 -12 -22 -21 20 -24 17 -12 -13 8 -21 7 -28 -6
-35 -8 -5 -15 -18 -15 -28 0 -10 -4 -21 -10 -25 -5 -3 -7 -12 -3 -20 3 -8 0
-15 -6 -15 -6 0 -11 -4 -11 -10 0 -5 7 -10 15 -10 8 0 15 -9 15 -19 0 -14 -6
-19 -20 -16 -23 4 -27 -17 -7 -37 8 -7 12 -20 9 -28 -4 -12 -2 -13 9 -2 20 19
39 14 39 -10 0 -12 11 -32 25 -44 24 -20 24 -23 10 -50 -9 -17 -11 -30 -5 -32
6 -2 8 -8 5 -12 -3 -5 -2 -17 3 -27 27 -53 34 -73 29 -87 -5 -12 -10 -13 -31
-3 -18 8 -32 30 -47 70 -12 33 -28 61 -36 64 -7 3 -13 14 -13 26 0 21 -41 83
-100 149 -32 36 -38 38 -63 29 -15 -6 -27 -14 -26 -18 3 -21 -2 -33 -15 -33
-8 0 -16 -5 -18 -12 -2 -6 -20 -17 -39 -24 -32 -12 -29 -13 33 -7 l67 6 17
-36 c22 -46 13 -83 -23 -91 -16 -3 -72 -9 -126 -12 -54 -4 -100 -10 -102 -14
-3 -4 12 -6 33 -4 185 15 194 15 200 -8 5 -21 6 -21 12 -3 4 11 16 20 26 20
16 0 19 6 16 48 -3 52 14 89 29 65 12 -18 11 -81 -1 -112 -10 -29 0 -35 20
-11 7 8 16 13 20 10 5 -3 12 5 16 17 7 22 7 22 14 3 4 -11 3 -30 -3 -42 -11
-24 -3 -58 12 -49 10 7 21 -16 21 -45 0 -10 5 -19 11 -19 8 0 8 -5 -1 -15 -11
-13 -7 -15 30 -15 29 0 48 6 57 18 13 15 14 14 8 -11 -4 -19 -2 -26 5 -22 5 3
10 -1 10 -10 0 -9 -4 -14 -9 -11 -5 3 -11 -3 -14 -14 -6 -22 8 -28 17 -7 3 6
3 -5 0 -25 -4 -24 -2 -38 5 -38 6 0 8 -7 5 -15 -4 -8 -1 -15 5 -15 6 0 11 -11
11 -25 0 -19 -5 -25 -17 -23 -10 2 -21 8 -25 13 -4 6 -8 2 -8 -7 0 -12 8 -18
24 -18 17 0 25 -5 24 -17 -1 -27 10 -76 25 -111 16 -40 43 -29 33 13 -5 19 -3
31 6 36 10 7 9 9 -4 9 -19 0 -14 28 6 42 8 6 8 8 0 8 -6 0 -11 7 -11 15 0 8 6
15 13 15 7 0 14 5 16 12 3 7 34 12 84 14 43 1 68 0 54 -3 -14 -3 -28 -11 -32
-17 -5 -9 -21 -11 -51 -6 -32 5 -44 3 -44 -6 0 -7 3 -13 6 -12 20 2 31 -4 25
-13 -4 -8 -1 -8 12 -1 11 5 35 12 54 15 52 7 118 26 125 36 3 5 15 7 28 4 18
-4 19 -3 7 6 -11 8 2 11 53 11 l67 0 0 60 c0 47 -3 60 -15 60 -8 0 -15 5 -15
10 0 6 7 10 15 10 12 0 14 60 15 439 l0 439 -57 -15 c-70 -18 -84 -28 -26 -18
40 6 41 6 36 -17 -5 -19 -3 -21 8 -10 20 19 25 15 25 -18 0 -21 -3 -27 -10
-20 -15 15 -36 12 -36 -6 0 -8 -4 -12 -10 -9 -6 4 -10 -7 -10 -24 0 -31 -21
-43 -35 -21 -4 6 -11 8 -16 5 -5 -4 -9 -2 -9 2 0 5 9 14 20 21 24 15 26 38 4
46 -9 4 -13 2 -8 -5 4 -6 0 -15 -7 -20 -22 -14 -29 -11 -29 12 0 11 4 17 10
14 6 -3 7 1 4 9 -3 9 -10 16 -16 16 -5 0 -6 -4 -3 -10 3 -5 1 -10 -4 -10 -6 0
-10 -8 -9 -17 3 -37 -2 -53 -17 -53 -18 0 -18 5 -5 31 8 13 7 19 0 19 -7 0 -8
6 -2 16 6 11 3 28 -9 53 -23 49 -14 53 23 11 16 -19 27 -27 24 -17 -4 12 0 17
12 17 13 0 14 2 3 9 -7 5 -10 14 -6 21 5 9 2 10 -13 6 -31 -10 -68 33 -42 49
6 4 8 11 5 16 -4 5 -2 9 4 9 5 0 11 -3 14 -7 2 -5 2 -2 1 4 -2 7 5 17 14 22
14 9 14 10 2 11 -22 0 -62 -29 -55 -41 4 -5 -3 -22 -14 -38 -12 -16 -21 -38
-21 -50 0 -11 -8 -25 -17 -31 -13 -8 -14 -13 -5 -16 19 -9 15 -44 -6 -44 -10
0 -22 4 -27 9 -6 5 -19 12 -31 15 -16 5 -24 -1 -39 -31 -10 -21 -18 -42 -17
-46 2 -5 -2 -6 -7 -3 -5 4 -8 18 -5 31 2 14 0 25 -6 25 -13 0 -13 -57 1 -65 6
-5 4 -12 -8 -20 -21 -16 -28 -10 -37 28 -6 27 7 38 18 15 3 -7 4 -1 1 14 -3
17 1 33 11 43 24 24 61 80 68 103 9 26 45 72 57 72 5 0 9 -6 9 -13 0 -7 9 -13
20 -14 23 -2 25 2 10 20 -6 7 -16 19 -23 27 -7 8 -11 14 -10 11 1 -2 -3 -9
-10 -16 -16 -16 -47 -15 -47 2 0 7 -5 13 -12 13 -18 0 5 21 28 25 11 2 21 4
23 4 2 1 -4 10 -13 20 -17 19 -17 19 16 17 47 -4 48 -5 48 -17 0 -5 -4 -7 -10
-4 -17 11 -11 -7 8 -21 15 -12 15 -15 2 -25 -13 -9 -12 -10 3 -5 10 3 21 6 23
6 2 0 4 7 4 15 0 8 5 15 10 15 6 0 10 7 10 15 0 8 5 15 10 15 6 0 10 -9 10
-19 0 -21 28 -35 52 -26 9 4 18 -1 21 -9 4 -9 11 -16 17 -16 7 0 8 6 0 19 -12
23 -6 28 38 29 17 0 41 4 52 7 22 7 27 31 8 38 -10 4 -10 6 0 6 16 1 16 38 0
55 -7 7 -20 11 -29 9 -9 -3 -20 0 -23 5 -4 7 7 9 29 7 l36 -3 -2 124 -1 124
-64 0 c-44 0 -64 -4 -64 -12 0 -10 -2 -10 -9 0 -5 9 -30 13 -81 11 -63 -2 -70
-4 -55 -15 15 -11 16 -16 6 -28 -7 -8 -10 -20 -6 -26 3 -5 -1 -13 -10 -16 -12
-5 -13 -9 -4 -20 7 -8 9 -17 6 -21 -4 -3 -48 -6 -99 -5 -51 0 -97 -2 -101 -5
-5 -3 0 -15 10 -26 10 -12 2 -8 -16 8 -19 17 -30 23 -26 15 6 -12 5 -13 -5 -3
-7 7 -13 35 -14 62 -1 54 -3 56 -26 41 -13 -8 -13 -11 -1 -19 7 -5 11 -13 7
-19 -3 -6 -2 -13 3 -17 12 -7 3 -35 -11 -35 -6 0 -7 8 -4 18 5 15 4 15 -6 2
-7 -8 -20 -16 -29 -18 -23 -3 -83 54 -76 73 4 8 2 17 -4 21 -6 4 -6 11 2 20 7
9 8 14 1 14 -16 0 -21 -12 -24 -53 l-2 -37 -21 20 c-22 21 -45 26 -45 11 0 -5
5 -11 10 -13 7 -2 5 -11 -4 -23 -13 -19 -15 -18 -41 13 -30 36 -43 36 -25 0
10 -21 10 -21 -3 -5 -8 9 -18 17 -22 17 -4 0 -4 -8 -1 -17 3 -10 -16 6 -43 35
l-49 52 -360 0 c-225 0 -371 -4 -388 -10 -21 -8 -29 -8 -35 2 -7 11 -12 11
-30 0 -11 -8 -18 -9 -14 -3 3 6 0 11 -8 11 -8 0 -17 -9 -20 -21 -7 -26 -44
-22 -39 4 2 9 -2 17 -8 17 -6 0 -9 -4 -6 -9z m1626 -5 c0 -11 -19 -15 -25 -6
-3 5 1 10 9 10 9 0 16 -2 16 -4z m95 -56 c3 -5 1 -10 -4 -10 -6 0 -11 5 -11
10 0 6 2 10 4 10 3 0 8 -4 11 -10z m-85 -10 c0 -5 -4 -10 -10 -10 -5 0 -10 5
-10 10 0 6 5 10 10 10 6 0 10 -4 10 -10z m45 -18 c0 -18 -20 -15 -23 4 -3 10
1 15 10 12 7 -3 13 -10 13 -16z m-1645 -88 c0 -9 -24 -30 -45 -38 -16 -6 -15
-3 5 17 25 24 40 33 40 21z m288 -4 c9 0 7 -9 -7 -29 -19 -26 -19 -29 -4 -26
10 2 21 4 25 4 4 1 4 9 1 18 -5 12 -2 15 10 10 8 -3 17 -1 20 6 2 6 6 4 10 -6
4 -11 1 -17 -8 -17 -9 0 -15 -9 -15 -21 0 -12 -8 -23 -20 -26 -11 -3 -20 -10
-20 -15 0 -5 5 -6 10 -3 6 4 10 -5 10 -19 0 -20 -5 -26 -21 -26 -12 0 -23 8
-26 19 -3 11 -12 22 -20 25 -10 4 -13 1 -9 -12 7 -22 -3 -38 -31 -46 -31 -10
-33 17 -5 94 25 70 37 83 67 75 11 -2 26 -5 33 -5z m492 -10 c0 -11 -5 -20
-11 -20 -5 0 -7 5 -3 11 3 6 0 15 -7 20 -11 7 -10 9 4 9 10 0 17 -8 17 -20z
m-342 -3 c11 -13 14 -64 6 -109 -6 -32 -29 -37 -44 -9 -11 22 -14 114 -3 124
10 11 30 8 41 -6z m262 -1 c0 -3 -4 -8 -10 -11 -5 -3 -10 -1 -10 4 0 6 5 11
10 11 6 0 10 -2 10 -4z m-863 -12 c-3 -3 -12 -4 -19 -1 -8 3 -5 6 6 6 11 1 17
-2 13 -5z m680 -46 c-3 -7 -5 -2 -5 12 0 14 2 19 5 13 2 -7 2 -19 0 -25z m143
22 c0 -5 -5 -10 -11 -10 -5 0 -7 5 -4 10 3 6 8 10 11 10 2 0 4 -4 4 -10z m168
-14 c-2 -12 -9 -20 -18 -18 -8 2 -22 4 -32 5 -28 2 -2 35 27 35 21 0 25 -5 23
-22z m62 4 c0 -18 -3 -19 -20 -10 -22 12 -18 30 6 30 8 0 14 -9 14 -20z m62
-18 c-12 -2 -20 -8 -17 -13 10 -15 -12 -10 -25 6 -9 10 -9 15 -1 15 6 0 10 3
10 8 -3 20 3 21 28 5 27 -18 27 -18 5 -21z m426 -5 c1 -23 0 -61 -3 -84 -6
-42 -6 -43 -46 -40 -31 2 -39 6 -40 22 -1 11 -3 33 -5 49 -2 21 2 29 17 33 22
6 26 23 4 23 -18 0 -20 26 -2 33 6 3 26 6 42 6 28 1 30 -1 33 -42z m125 21
c10 -9 13 -19 8 -22 -5 -3 -12 2 -15 11 -6 14 -9 15 -15 4 -6 -9 -11 -10 -15
-2 -4 6 -14 11 -23 11 -11 0 -13 -4 -6 -12 5 -7 6 -24 2 -38 -4 -14 -8 -23 -9
-20 -6 13 -9 67 -5 78 6 18 57 11 78 -10z m147 -4 c0 -8 -4 -12 -10 -9 -5 3
-10 13 -10 21 0 8 5 12 10 9 6 -3 10 -13 10 -21z m-1010 -7 c10 -4 8 -6 -7 -6
-16 -1 -23 5 -23 17 0 10 3 13 8 6 4 -6 14 -14 22 -17z m610 3 c-24 -15 -36
-11 -14 4 10 8 21 12 24 10 2 -3 -2 -9 -10 -14z m-240 -15 c14 -19 14 -19 -2
-6 -10 7 -18 18 -18 24 0 6 1 8 3 6 1 -2 9 -13 17 -24z m-230 -26 c5 10 9 9
13 -3 4 -11 1 -16 -12 -16 -24 0 -31 9 -23 28 6 15 7 15 10 -2 3 -13 6 -15 12
-7z m113 14 c-7 -2 -19 -2 -25 0 -7 3 -2 5 12 5 14 0 19 -2 13 -5z m97 3 c0
-2 -7 -6 -15 -10 -8 -3 -15 -1 -15 4 0 6 7 10 15 10 8 0 15 -2 15 -4z m-623
-28 c-3 -8 -6 -5 -6 6 -1 11 2 17 5 13 3 -3 4 -12 1 -19z m277 -8 c0 -19 -6
-26 -32 -31 -35 -7 -41 5 -21 42 15 29 54 22 53 -11z m626 -6 c0 -8 -4 -12
-10 -9 -14 9 -12 -8 3 -25 6 -8 0 -5 -14 8 -14 12 -32 22 -40 22 -12 0 -12 2
1 10 24 15 60 12 60 -6z m406 -2 c-10 -2 -22 0 -28 6 -6 6 0 7 19 4 21 -5 23
-7 9 -10z m-1109 -14 c-3 -8 -6 -5 -6 6 -1 11 2 17 5 13 3 -3 4 -12 1 -19z
m303 7 c0 -8 -4 -15 -10 -15 -5 0 -7 7 -4 15 4 8 8 15 10 15 2 0 4 -7 4 -15z
m153 -7 c54 -1 25 -17 -35 -20 -35 -2 -61 -7 -60 -12 3 -8 -16 -25 -29 -26 -3
0 -5 16 -6 34 -1 40 13 47 67 33 19 -5 47 -9 63 -9z m139 -5 c22 -20 23 -39 2
-47 -26 -10 -29 -7 -31 29 -3 39 2 43 29 18z m-332 -3 c0 -5 -2 -10 -4 -10 -3
0 -8 5 -11 10 -3 6 -1 10 4 10 6 0 11 -4 11 -10z m-30 -32 c0 -17 -30 -40 -45
-34 -20 7 -19 36 0 36 8 0 15 4 15 10 0 5 7 7 15 4 8 -4 15 -10 15 -16z m455
3 c3 -5 1 -12 -5 -16 -5 -3 -10 1 -10 9 0 18 6 21 15 7z m-265 -5 c0 -11 -19
-15 -25 -6 -3 5 1 10 9 10 9 0 16 -2 16 -4z m120 -6 c0 -5 -12 -10 -26 -10
-14 0 -23 4 -19 10 3 6 15 10 26 10 10 0 19 -4 19 -10z m320 -9 c0 -5 -7 -12
-16 -15 -14 -5 -15 -4 -4 9 14 17 20 19 20 6z m-1310 -17 c0 -8 -4 -12 -10 -9
-5 3 -10 10 -10 16 0 5 5 9 10 9 6 0 10 -7 10 -16z m773 -49 c4 -8 2 -17 -4
-20 -5 -4 -8 -13 -7 -20 2 -8 -1 -14 -7 -13 -5 0 -8 5 -6 12 2 6 3 21 3 34 -2
25 13 30 21 7z m534 -7 c-3 -8 -6 -5 -6 6 -1 11 2 17 5 13 3 -3 4 -12 1 -19z
m-715 -10 c-7 -7 -12 -8 -12 -2 0 6 3 14 7 17 3 4 9 5 12 2 2 -3 -1 -11 -7
-17z m108 12 c0 -5 -7 -10 -16 -10 -8 0 -12 5 -9 10 3 6 10 10 16 10 5 0 9 -4
9 -10z m-425 -20 c10 -11 28 -20 39 -20 13 0 29 -12 39 -30 21 -35 14 -37 -48
-15 -22 8 -66 15 -97 15 -57 0 -138 24 -138 41 0 16 74 5 88 -13 7 -10 25 -18
40 -18 l27 1 -33 17 c-18 10 -30 21 -26 25 12 12 62 8 67 -5 3 -8 6 -6 6 5 1
23 14 22 36 -3z m389 4 c4 -9 13 -14 21 -10 21 8 19 -27 -3 -47 -15 -14 -87
-36 -119 -37 -8 0 -13 12 -13 29 0 16 -3 31 -7 34 -5 2 -2 2 5 1 6 -2 12 1 12
6 0 6 9 6 23 1 28 -11 52 1 43 20 -4 8 0 5 9 -6 17 -20 17 -20 10 3 -7 25 10
31 19 6z m271 -64 c-3 -5 -12 -7 -20 -3 -21 7 -19 13 6 13 11 0 18 -4 14 -10z
m-115 -24 c0 -2 -7 -7 -16 -10 -8 -3 -12 -2 -9 4 6 10 25 14 25 6z m659 -10
c7 -8 8 -17 3 -20 -6 -3 -12 3 -15 14 -6 24 -4 25 12 6z m-472 -61 c9 -28 8
-35 -2 -35 -8 0 -11 7 -8 19 3 10 0 22 -6 25 -13 8 -15 26 -3 26 5 0 13 -16
19 -35z m663 0 c0 -8 -2 -15 -4 -15 -2 0 -6 7 -10 15 -3 8 -1 15 4 15 6 0 10
-7 10 -15z m-224 -32 c-10 -10 -19 5 -10 18 6 11 8 11 12 0 2 -7 1 -15 -2 -18z
m211 1 c-3 -3 -12 -4 -19 -1 -8 3 -5 6 6 6 11 1 17 -2 13 -5z m-122 -53 c-3
-6 -11 -8 -17 -5 -6 4 -5 9 3 15 16 10 23 4 14 -10z m-162 -8 c4 -3 26 -7 50
-7 36 -1 42 -4 45 -24 4 -27 22 -19 22 10 0 15 4 18 18 13 9 -4 25 -9 34 -12
9 -3 19 -12 23 -20 5 -14 3 -14 -11 -2 -13 11 -18 11 -21 2 -7 -19 -23 -16
-24 5 0 14 -2 14 -8 -3 -5 -11 -6 -24 -4 -28 3 -5 -4 -4 -15 2 -27 14 -32 14
-32 -2 0 -9 -10 -12 -30 -9 -24 3 -32 0 -41 -22 -14 -30 -22 -32 -43 -10 -21
20 -20 26 2 22 14 -3 17 4 14 45 -3 43 5 57 21 40z m227 -74 c0 -11 -7 -19
-17 -19 -15 0 -16 2 -3 10 9 6 11 10 3 10 -7 0 -10 7 -7 15 8 20 24 9 24 -16z
m-180 -343 c-3 -2 -30 -7 -60 -9 -30 -3 -74 -8 -97 -12 -28 -5 -43 -4 -43 3 0
6 10 12 23 14 36 6 182 10 177 4z m90 -117 c0 -6 -4 -7 -10 -4 -5 3 -10 11
-10 16 0 6 5 7 10 4 6 -3 10 -11 10 -16z m140 -29 c0 -5 -2 -10 -4 -10 -3 0
-8 5 -11 10 -3 6 -1 10 4 10 6 0 11 -4 11 -10z m-305 -90 c3 -5 2 -10 -4 -10
-5 0 -13 5 -16 10 -3 6 -2 10 4 10 5 0 13 -4 16 -10z m152 -32 c27 -2 30 -5
22 -20 -9 -16 -35 -24 -63 -19 -5 1 -6 -7 -3 -18 3 -12 -1 -22 -10 -25 -8 -3
-11 -1 -8 4 9 14 -9 12 -23 -2 -7 -7 -18 -13 -25 -13 -7 -1 -11 -6 -10 -12 2
-7 -19 -13 -53 -15 l-56 -3 6 43 c3 23 12 55 20 70 13 25 20 28 77 30 35 2 65
5 68 7 2 3 9 -2 15 -10 6 -8 25 -16 43 -17z"/>
<path d="M2101 1694 c0 -11 3 -14 6 -6 3 7 2 16 -1 19 -3 4 -6 -2 -5 -13z"/>
<path d="M1507 1423 c-14 -13 -6 -23 19 -23 22 0 25 2 14 15 -14 16 -23 19
-33 8z"/>
<path d="M2265 530 c3 -5 8 -10 11 -10 2 0 4 5 4 10 0 6 -5 10 -11 10 -5 0 -7
-4 -4 -10z"/>
<path d="M2213 523 c-15 -5 -17 -23 -4 -23 5 0 11 7 15 15 3 8 4 15 3 14 -1 0
-8 -3 -14 -6z"/>
<path d="M2318 518 c5 -5 16 -8 23 -6 8 3 3 7 -10 11 -17 4 -21 3 -13 -5z"/>
<path d="M2241 484 c0 -11 3 -14 6 -6 3 7 2 16 -1 19 -3 4 -6 -2 -5 -13z"/>
<path d="M413 1925 c0 -17 24 -28 32 -15 3 5 -3 13 -13 19 -14 7 -19 6 -19 -4z"/>
<path d="M118 1908 c9 -9 15 -9 24 0 9 9 7 12 -12 12 -19 0 -21 -3 -12 -12z"/>
<path d="M2255 1900 c-3 -6 1 -7 9 -4 18 7 21 14 7 14 -6 0 -13 -4 -16 -10z"/>
<path d="M1920 1879 c0 -5 5 -7 10 -4 6 3 10 8 10 11 0 2 -4 4 -10 4 -5 0 -10
-5 -10 -11z"/>
<path d="M2230 1886 c0 -4 7 -14 15 -22 8 -9 15 -11 15 -6 0 5 -7 15 -15 22
-8 7 -15 9 -15 6z"/>
<path d="M642 1569 c2 -6 8 -10 13 -10 5 0 11 4 13 10 2 6 -4 11 -13 11 -9 0
-15 -5 -13 -11z"/>
<path d="M754 1496 c-4 -11 2 -26 17 -42 20 -21 23 -34 21 -75 -3 -31 0 -49 7
-49 6 0 11 5 11 10 0 6 7 10 15 10 21 0 19 13 -5 28 -17 10 -18 15 -8 33 11
17 10 22 -4 30 -10 6 -18 15 -18 22 0 7 -7 21 -15 31 -13 18 -15 18 -21 2z"/>
<path d="M2390 1471 c0 -6 5 -13 10 -16 6 -3 10 1 10 9 0 9 -4 16 -10 16 -5 0
-10 -4 -10 -9z"/>
<path d="M2483 1464 c-3 -8 -11 -13 -18 -10 -13 5 -30 -22 -20 -32 3 -3 5 0 5
7 0 7 5 9 10 6 11 -7 33 13 38 33 3 17 -8 15 -15 -4z"/>
<path d="M750 1431 c0 -12 5 -21 10 -21 6 0 10 6 10 14 0 8 -4 18 -10 21 -5 3
-10 -3 -10 -14z"/>
<path d="M2 1368 c5 -15 28 -23 28 -10 0 5 -7 13 -16 16 -10 4 -14 1 -12 -6z"/>
<path d="M725 1360 c-3 -5 -1 -10 4 -10 6 0 11 5 11 10 0 6 -2 10 -4 10 -3 0
-8 -4 -11 -10z"/>
<path d="M860 1354 c0 -12 -7 -24 -15 -28 -16 -6 -21 -26 -6 -26 17 0 40 46
30 61 -7 11 -9 9 -9 -7z"/>
<path d="M1012 1299 c1 -20 4 -26 9 -17 12 18 11 48 0 48 -5 0 -9 -14 -9 -31z"/>
<path d="M1225 1310 c3 -5 8 -10 11 -10 2 0 4 5 4 10 0 6 -5 10 -11 10 -5 0
-7 -4 -4 -10z"/>
<path d="M1070 1301 c0 -5 5 -13 10 -16 6 -3 10 -2 10 4 0 5 -4 13 -10 16 -5
3 -10 2 -10 -4z"/>
<path d="M796 1282 c-3 -5 -2 -21 2 -35 5 -18 11 -24 20 -18 10 6 10 14 3 34
-11 28 -16 32 -25 19z"/>
<path d="M857 1272 c-25 -27 -21 -35 8 -16 25 16 33 34 17 34 -5 0 -16 -8 -25
-18z"/>
<path d="M1733 1269 c-1 -12 3 -19 10 -16 15 5 16 29 2 34 -6 2 -11 -6 -12
-18z"/>
<path d="M1161 1264 c0 -11 3 -14 6 -6 3 7 2 16 -1 19 -3 4 -6 -2 -5 -13z"/>
<path d="M1180 1270 c0 -5 5 -10 10 -10 6 0 10 5 10 10 0 6 -4 10 -10 10 -5 0
-10 -4 -10 -10z"/>
<path d="M1120 1236 c0 -21 11 -46 20 -46 10 0 0 49 -11 56 -5 3 -9 -1 -9 -10z"/>
<path d="M1870 1179 c0 -9 -7 -20 -16 -23 -8 -3 -12 -10 -9 -16 3 -5 -1 -10
-9 -10 -16 0 -23 -40 -9 -53 10 -11 32 13 26 29 -3 8 0 14 6 14 6 0 11 -9 11
-20 0 -20 1 -20 25 -4 24 16 37 43 13 28 -8 -5 -9 -2 -5 10 4 10 7 24 7 32 0
8 7 14 15 14 8 0 15 4 15 10 0 5 -16 9 -35 7 -25 -1 -35 -7 -35 -18z"/>
<path d="M2000 1189 c0 -5 5 -7 10 -4 6 3 10 8 10 11 0 2 -4 4 -10 4 -5 0 -10
-5 -10 -11z"/>
<path d="M1712 1169 c2 -7 10 -15 17 -17 8 -3 12 1 9 9 -2 7 -10 15 -17 17 -8
3 -12 -1 -9 -9z"/>
<path d="M1086 1146 c-3 -13 -9 -32 -12 -43 -5 -15 -4 -15 5 -3 9 13 11 13 11
-2 0 -10 10 -23 23 -29 l22 -12 -20 23 c-14 16 -16 24 -7 27 17 6 16 63 -2 63
-8 0 -17 -11 -20 -24z"/>
<path d="M960 1136 c0 -8 4 -17 10 -21 5 -3 7 -12 3 -20 -3 -8 0 -15 6 -15 12
0 14 14 5 48 -7 24 -24 30 -24 8z"/>
<path d="M1650 1130 c0 -5 5 -10 10 -10 6 0 10 5 10 10 0 6 -4 10 -10 10 -5 0
-10 -4 -10 -10z"/>
<path d="M1780 1049 c0 -33 3 -40 16 -35 9 3 22 6 30 6 8 0 14 6 14 13 0 12
-42 57 -54 57 -3 0 -6 -18 -6 -41z"/>
<path d="M1876 1055 c4 -8 10 -12 15 -9 14 8 10 24 -6 24 -9 0 -12 -6 -9 -15z"/>
<path d="M1070 1050 c0 -5 5 -10 10 -10 6 0 10 5 10 10 0 6 -4 10 -10 10 -5 0
-10 -4 -10 -10z"/>
<path d="M972 1024 c-17 -20 -18 -25 -6 -20 10 4 21 1 26 -6 5 -8 8 -1 8 20 0
17 -1 32 -2 32 -2 0 -13 -12 -26 -26z"/>
<path d="M1031 1004 c0 -11 3 -14 6 -6 3 7 2 16 -1 19 -3 4 -6 -2 -5 -13z"/>
<path d="M1085 991 c-3 -5 -1 -12 5 -16 5 -3 10 1 10 9 0 18 -6 21 -15 7z"/>
<path d="M993 955 c-9 -25 4 -29 17 -6 7 15 7 21 0 21 -6 0 -13 -7 -17 -15z"/>
<path d="M1045 950 c3 -5 8 -10 11 -10 2 0 4 5 4 10 0 6 -5 10 -11 10 -5 0 -7
-4 -4 -10z"/>
<path d="M1543 947 c3 -9 1 -18 -6 -21 -7 -2 -4 -5 6 -5 19 -1 23 24 5 35 -7
5 -9 2 -5 -9z"/>
<path d="M1585 939 c-4 -6 -4 -13 -1 -16 8 -8 36 5 36 17 0 13 -27 13 -35 -1z"/>
<path d="M1495 890 c-3 -5 -1 -10 4 -10 6 0 11 5 11 10 0 6 -2 10 -4 10 -3 0
-8 -4 -11 -10z"/>
<path d="M1530 890 c0 -5 4 -10 9 -10 6 0 13 5 16 10 3 6 -1 10 -9 10 -9 0
-16 -4 -16 -10z"/>
<path d="M1191 864 c0 -11 3 -14 6 -6 3 7 2 16 -1 19 -3 4 -6 -2 -5 -13z"/>
<path d="M1590 854 c-46 -20 -33 -26 21 -11 28 8 39 15 28 19 -8 3 -30 0 -49
-8z"/>
<path d="M1090 841 c0 -6 5 -13 10 -16 6 -3 10 1 10 9 0 9 -4 16 -10 16 -5 0
-10 -4 -10 -9z"/>
<path d="M1498 823 c12 -2 30 -2 40 0 9 3 -1 5 -23 4 -22 0 -30 -2 -17 -4z"/>
<path d="M1370 790 c0 -5 5 -10 10 -10 6 0 10 5 10 10 0 6 -4 10 -10 10 -5 0
-10 -4 -10 -10z"/>
<path d="M1173 748 c1 -7 -3 -12 -9 -11 -7 1 -12 -17 -12 -50 0 -29 -5 -64
-11 -79 -10 -27 1 -49 14 -28 3 5 22 10 41 10 19 0 34 4 34 10 0 5 8 6 17 3
14 -6 14 -2 -4 23 -11 16 -21 33 -21 37 -1 17 -37 97 -44 97 -5 0 -7 -6 -5
-12z m24 -144 c-3 -3 -12 -4 -19 -1 -8 3 -5 6 6 6 11 1 17 -2 13 -5z"/>
<path d="M1256 751 c-4 -7 -5 -15 -2 -18 9 -9 19 4 14 18 -4 11 -6 11 -12 0z"/>
<path d="M1453 724 c-7 -7 -13 -21 -12 -31 0 -17 1 -17 8 0 4 10 10 18 14 18
4 -1 24 -1 45 -1 27 0 33 3 22 10 -8 5 -23 7 -34 4 -10 -4 -21 -2 -25 4 -4 6
-11 5 -18 -4z"/>
<path d="M1325 712 c-61 -5 -61 -17 1 -17 29 0 54 3 54 7 0 11 -13 13 -55 10z"/>
<path d="M1400 691 c0 -19 17 -38 25 -29 7 7 -7 48 -16 48 -5 0 -9 -9 -9 -19z"/>
<path d="M1467 688 c-2 -7 0 -21 5 -31 8 -15 19 -18 59 -16 35 2 53 -1 59 -11
5 -9 5 -17 -2 -21 -5 -3 -8 -15 -5 -25 4 -17 6 -17 12 3 4 13 11 21 15 18 4
-2 5 7 2 20 -3 18 0 25 12 25 9 0 16 8 16 17 0 13 -3 14 -12 5 -9 -9 -14 -8
-22 3 -13 18 -93 26 -101 11 -3 -7 -7 -7 -11 2 -3 6 -9 12 -14 12 -5 0 -10 -6
-13 -12z"/>
<path d="M1813 688 c-13 -6 -23 -18 -23 -27 0 -14 -2 -14 -10 -1 -12 20 -23 7
-24 -30 -1 -19 -6 -30 -16 -30 -13 0 -13 -1 0 -10 11 -7 12 -10 2 -10 -8 0
-16 9 -19 20 -3 11 -9 17 -14 14 -5 -3 -12 2 -15 10 -3 9 -10 16 -15 16 -6 0
-5 -9 2 -21 10 -19 9 -20 -13 -14 -16 5 -12 -1 14 -19 20 -14 44 -26 52 -26 9
0 16 -5 16 -11 0 -7 18 -9 53 -5 28 3 55 5 59 6 8 0 -2 78 -15 110 -6 14 -10
28 -9 33 2 8 3 9 -25 -5z m17 -12 c0 -3 -4 -8 -10 -11 -5 -3 -10 -1 -10 4 0 6
5 11 10 11 6 0 10 -2 10 -4z"/>
<path d="M1690 667 c0 -7 4 -18 9 -25 7 -12 12 -12 30 -1 22 15 28 29 11 29
-5 0 -10 -4 -10 -10 0 -5 -5 -10 -11 -10 -5 0 -8 4 -5 9 3 5 -1 11 -9 15 -8 3
-15 0 -15 -7z"/>
<path d="M1436 655 c-3 -8 -1 -15 4 -15 6 0 10 7 10 15 0 8 -2 15 -4 15 -2 0
-6 -7 -10 -15z"/>
<path d="M204 644 c6 -6 18 -11 26 -11 8 0 24 -4 34 -9 16 -6 18 -4 13 10 -5
13 -3 17 11 14 9 -2 16 -11 16 -21 -1 -9 2 -17 7 -17 5 0 9 5 9 11 0 6 6 9 14
6 9 -4 12 0 9 13 -4 15 -15 18 -77 16 -52 -1 -70 -4 -62 -12z"/>
<path d="M515 620 c-3 -5 -1 -10 4 -10 6 0 11 5 11 10 0 6 -2 10 -4 10 -3 0
-8 -4 -11 -10z"/>
<path d="M1479 596 c4 -30 5 -30 11 -6 l7 25 7 -27 c5 -15 15 -29 24 -33 14
-5 15 -4 5 6 -18 18 -16 34 2 19 23 -19 41 1 25 27 -10 16 -11 16 -7 -4 6 -29
0 -29 -30 -1 -35 33 -50 31 -44 -6z"/>
<path d="M231 600 c-8 -4 -21 -6 -29 -2 -9 3 -13 1 -9 -5 3 -5 21 -10 39 -11
18 0 34 -5 36 -10 3 -10 42 -4 42 7 0 3 -12 7 -26 8 -15 0 -30 6 -33 11 -4 7
-12 7 -20 2z"/>
<path d="M326 594 c-4 -9 1 -14 14 -14 23 0 27 15 6 23 -8 3 -17 -1 -20 -9z"/>
<path d="M1000 589 c0 -5 5 -7 10 -4 6 3 10 8 10 11 0 2 -4 4 -10 4 -5 0 -10
-5 -10 -11z"/>
<path d="M1405 590 c-4 -6 -10 -8 -15 -5 -4 3 -10 -2 -14 -10 -3 -8 -15 -15
-27 -15 -35 0 -18 -8 28 -14 30 -3 43 -1 47 10 3 8 1 14 -5 14 -6 0 -9 7 -5
15 6 17 0 20 -9 5z"/>
<path d="M398 573 c12 -2 32 -2 45 0 12 2 2 4 -23 4 -25 0 -35 -2 -22 -4z"/>
<path d="M597 558 c-11 -7 -3 -9 58 -13 11 -1 27 -5 35 -10 13 -7 13 -6 2 7
-14 18 -76 28 -95 16z"/>
<path d="M1183 553 c15 -2 37 -2 50 0 12 2 0 4 -28 4 -27 0 -38 -2 -22 -4z"/>
<path d="M1260 544 c0 -14 3 -15 18 -3 9 7 19 15 21 16 2 2 -5 3 -17 3 -14 0
-22 -6 -22 -16z"/>
<path d="M1880 525 c0 -9 6 -12 15 -9 8 4 15 10 15 15 0 5 -7 9 -15 9 -8 0
-15 -7 -15 -15z"/>
<path d="M115 520 c-3 -5 -1 -10 4 -10 6 0 11 5 11 10 0 6 -2 10 -4 10 -3 0
-8 -4 -11 -10z"/>
<path d="M1823 523 c9 -2 23 -2 30 0 6 3 -1 5 -18 5 -16 0 -22 -2 -12 -5z"/>
<path d="M1933 518 c-26 -12 -30 -28 -8 -28 8 0 19 9 25 20 6 11 9 20 8 19 -2
0 -13 -5 -25 -11z"/>
<path d="M1034 488 c1 -39 10 -49 20 -23 3 8 1 15 -4 15 -5 0 -11 10 -13 23
-2 12 -4 5 -3 -15z"/>
<path d="M1066 505 c-6 -17 2 -45 13 -45 4 0 6 14 3 30 -5 34 -7 36 -16 15z"/>
<path d="M1109 518 c-1 -2 -2 -23 -3 -48 -2 -25 -6 -55 -10 -67 -12 -37 5 -48
21 -14 9 17 19 28 23 26 14 -9 23 35 10 50 -8 9 -8 15 0 20 6 3 8 11 4 16 -3
6 -12 5 -22 -3 -13 -11 -15 -10 -9 5 3 9 2 17 -3 17 -6 0 -10 -1 -11 -2z m18
-60 c2 -18 0 -20 -7 -8 -12 18 -13 30 -2 30 4 0 9 -10 9 -22z"/>
<path d="M308 503 c7 -3 16 -2 19 1 4 3 -2 6 -13 5 -11 0 -14 -3 -6 -6z"/>
<path d="M1498 503 c7 -3 16 -2 19 1 4 3 -2 6 -13 5 -11 0 -14 -3 -6 -6z"/>
<path d="M1183 493 c9 -2 23 -2 30 0 6 3 -1 5 -18 5 -16 0 -22 -2 -12 -5z"/>
<path d="M885 470 c-3 -5 -2 -10 4 -10 5 0 13 5 16 10 3 6 2 10 -4 10 -5 0
-13 -4 -16 -10z"/>
<path d="M288 443 c7 -3 16 -2 19 1 4 3 -2 6 -13 5 -11 0 -14 -3 -6 -6z"/>
<path d="M1990 419 c0 -5 5 -7 10 -4 6 3 10 8 10 11 0 2 -4 4 -10 4 -5 0 -10
-5 -10 -11z"/>
<path d="M368 393 c6 -2 18 -2 25 0 6 3 1 5 -13 5 -14 0 -19 -2 -12 -5z"/>
<path d="M2505 380 c-3 -5 0 -10 7 -10 9 0 9 -3 -2 -10 -11 -7 -7 -10 19 -10
25 0 32 4 28 14 -4 11 -1 13 11 10 14 -5 15 -4 2 5 -19 14 -57 14 -65 1z"/>
<path d="M60 370 c0 -5 5 -10 11 -10 5 0 7 5 4 10 -3 6 -8 10 -11 10 -2 0 -4
-4 -4 -10z"/>
<path d="M106 362 c-3 -6 -1 -14 5 -17 14 -9 20 -2 10 14 -6 8 -11 9 -15 3z"/>
<path d="M2000 356 c0 -8 -19 -18 -44 -25 -57 -14 -56 -14 -56 5 0 8 -5 12
-10 9 -6 -4 -10 -14 -8 -23 1 -10 -1 -23 -6 -30 -4 -7 -5 -16 -1 -20 4 -4 9
-2 12 3 10 27 23 36 67 44 44 8 65 22 66 44 0 4 -4 7 -10 7 -5 0 -10 -6 -10
-14z"/>
<path d="M170 350 c-13 -8 -13 -10 2 -10 9 0 20 5 23 10 8 13 -5 13 -25 0z"/>
<path d="M1067 353 c-3 -5 -1 -17 4 -28 6 -17 7 -16 6 8 -1 28 -3 32 -10 20z"/>
<path d="M1120 345 c-3 -35 1 -99 9 -135 5 -22 3 -46 -5 -65 -7 -16 -13 -23
-14 -15 0 12 -3 11 -14 -3 -9 -12 -16 -14 -21 -8 -11 18 -22 12 -27 -14 -6
-30 18 -57 28 -31 3 9 10 16 14 16 13 0 6 -34 -10 -46 -21 -17 42 -9 97 12 24
8 47 13 52 10 5 -3 21 1 37 9 15 7 31 12 36 9 12 -8 10 10 -4 24 -16 16 -29
15 -25 0 1 -9 -10 -13 -33 -12 -22 1 -34 5 -32 13 1 7 -2 10 -8 6 -5 -3 -10
-13 -10 -22 0 -13 -3 -13 -15 -3 -19 16 -21 64 -2 57 7 -3 21 1 31 8 10 8 24
11 31 9 7 -3 16 -1 20 5 3 6 31 11 61 11 31 0 53 4 49 9 -3 5 5 12 17 14 13 3
-2 3 -32 1 -30 -2 -79 -8 -109 -14 -65 -12 -61 -12 -61 0 0 6 -11 33 -25 61
-13 29 -22 55 -20 59 3 5 1 19 -4 32 -9 21 -10 21 -11 3z"/>
<path d="M1910 350 c0 -5 4 -10 9 -10 6 0 13 5 16 10 3 6 -1 10 -9 10 -9 0
-16 -4 -16 -10z"/>
<path d="M2030 340 c0 -5 5 -10 11 -10 5 0 7 5 4 10 -3 6 -8 10 -11 10 -2 0
-4 -4 -4 -10z"/>
<path d="M2458 343 c6 -2 18 -2 25 0 6 3 1 5 -13 5 -14 0 -19 -2 -12 -5z"/>
<path d="M0 328 c0 -4 9 -8 20 -8 11 0 20 4 20 8 0 4 -9 8 -20 8 -11 0 -20 -4
-20 -8z"/>
<path d="M60 330 c0 -5 5 -10 11 -10 5 0 7 5 4 10 -3 6 -8 10 -11 10 -2 0 -4
-4 -4 -10z"/>
<path d="M2385 330 c-3 -5 -1 -10 4 -10 6 0 11 5 11 10 0 6 -2 10 -4 10 -3 0
-8 -4 -11 -10z"/>
<path d="M1780 310 c-8 -4 -26 -13 -40 -18 l-25 -11 27 2 c15 1 37 9 50 19 23
18 15 24 -12 8z"/>
<path d="M2082 311 c-11 -7 -11 -9 2 -14 10 -4 16 -1 16 8 0 17 -1 17 -18 6z"/>
<path d="M351 298 c-1 -10 6 -18 14 -18 8 0 15 5 15 11 0 5 -4 8 -9 5 -5 -4
-12 0 -14 6 -3 8 -6 6 -6 -4z"/>
<path d="M1510 290 c0 -5 5 -10 10 -10 6 0 10 5 10 10 0 6 -4 10 -10 10 -5 0
-10 -4 -10 -10z"/>
<path d="M2012 285 c-18 -21 7 -21 34 0 19 14 19 14 -1 14 -11 0 -26 -6 -33
-14z"/>
<path d="M1777 263 c-15 -7 -27 -20 -27 -29 0 -12 3 -12 25 2 23 15 26 15 41
0 9 -9 13 -23 10 -32 -5 -12 1 -14 32 -8 20 4 53 12 72 19 31 12 76 21 132 29
10 1 21 6 25 10 5 5 -10 5 -32 1 -22 -4 -51 -9 -65 -10 -122 -16 -130 -16
-145 -3 -39 35 -41 36 -68 21z"/>
<path d="M1910 270 c0 -5 5 -10 10 -10 6 0 10 5 10 10 0 6 -4 10 -10 10 -5 0
-10 -4 -10 -10z"/>
<path d="M1968 273 c7 -3 16 -2 19 1 4 3 -2 6 -13 5 -11 0 -14 -3 -6 -6z"/>
<path d="M1062 214 c-7 -8 -10 -20 -6 -27 5 -7 1 -7 -10 2 -22 18 -42 1 -31
-26 5 -10 7 -24 6 -30 -1 -7 3 -13 9 -13 5 0 9 5 8 12 -2 6 8 14 22 18 18 4
26 14 28 34 4 35 -8 49 -26 30z"/>
<path d="M1705 210 c-3 -5 -1 -10 4 -10 6 0 11 5 11 10 0 6 -2 10 -4 10 -3 0
-8 -4 -11 -10z"/>
<path d="M2428 203 c7 -3 16 -2 19 1 4 3 -2 6 -13 5 -11 0 -14 -3 -6 -6z"/>
<path d="M2374 188 c-3 -4 4 -8 15 -8 12 0 21 4 21 8 0 5 -7 9 -15 9 -9 0 -18
-4 -21 -9z"/>
<path d="M2114 177 c-3 -10 -12 -16 -20 -13 -20 8 -36 -19 -28 -48 6 -27 24
-36 24 -13 0 8 3 7 9 -3 6 -8 7 -18 5 -22 -9 -14 12 -9 86 22 72 28 107 50 83
50 -7 0 -14 -4 -17 -8 -7 -11 -100 -5 -104 6 -1 5 -9 18 -17 28 -13 18 -14 18
-21 1z"/>
<path d="M68 163 c7 -3 16 -2 19 1 4 3 -2 6 -13 5 -11 0 -14 -3 -6 -6z"/>
<path d="M157 163 c-13 -13 -7 -21 13 -16 11 3 17 9 14 14 -6 11 -18 12 -27 2z"/>
<path d="M1343 135 c0 -8 4 -15 9 -15 4 0 8 4 8 9 0 6 -4 12 -8 15 -5 3 -9 -1
-9 -9z"/>
<path d="M56 124 c-6 -15 -4 -15 11 -3 10 7 20 15 22 16 2 2 -3 3 -11 3 -9 0
-19 -7 -22 -16z"/>
<path d="M580 116 c0 -20 24 -31 48 -21 15 7 15 8 -3 13 -11 2 -26 9 -32 14
-10 8 -13 6 -13 -6z"/>
<path d="M197 100 c-5 -18 20 -50 39 -50 5 0 0 7 -11 16 -22 16 -23 23 -5 34
8 5 7 9 -3 13 -9 3 -17 -2 -20 -13z"/>
<path d="M1348 113 c-25 -6 -22 -20 4 -19 12 0 23 7 26 14 4 12 0 13 -30 5z"/>
<path d="M80 99 c0 -5 5 -7 10 -4 6 3 10 8 10 11 0 2 -4 4 -10 4 -5 0 -10 -5
-10 -11z"/>
<path d="M0 80 c0 -5 5 -10 11 -10 5 0 7 5 4 10 -8 13 -15 13 -15 0z"/>
<path d="M816 75 c-3 -8 -1 -15 4 -15 13 0 22 18 11 24 -5 3 -11 -1 -15 -9z"/>
<path d="M130 70 c0 -5 4 -10 9 -10 6 0 13 5 16 10 3 6 -1 10 -9 10 -9 0 -16
-4 -16 -10z"/>
<path d="M180 50 c0 -5 5 -10 11 -10 5 0 7 5 4 10 -3 6 -8 10 -11 10 -2 0 -4
-4 -4 -10z"/>
<path d="M900 40 c0 -5 5 -10 11 -10 5 0 7 5 4 10 -3 6 -8 10 -11 10 -2 0 -4
-4 -4 -10z"/>
<path d="M15 20 c-3 -5 -1 -10 4 -10 6 0 11 5 11 10 0 6 -2 10 -4 10 -3 0 -8
-4 -11 -10z"/>
</g>
</svg>
